<?xml version="1.0" standalone="no"?>
<!DOCTYPE svg PUBLIC "-//W3C//DTD SVG 20010904//EN"
 "http://www.w3.org/TR/2001/REC-SVG-20010904/DTD/svg10.dtd">
<svg version="1.0" xmlns="http://www.w3.org/2000/svg"
 width="95.000000pt" height="95.000000pt" viewBox="0 0 95.000000 95.000000"
 preserveAspectRatio="xMidYMid meet">

<g transform="translate(0.000000,95.000000) scale(0.100000,-0.100000)"
fill="#510872" stroke="none">
<path d="M338 784 c-28 -15 -58 -61 -58 -88 0 -13 38 -34 44 -24 1 1 7 16 14
31 16 37 48 48 89 32 27 -11 34 -11 44 1 38 46 -67 84 -133 48z"/>
<path d="M531 767 c-13 -6 -34 -25 -45 -40 -20 -27 -21 -43 -24 -275 -3 -236
-4 -248 -23 -265 -30 -25 -64 -21 -88 9 -20 25 -21 40 -21 216 0 212 -5 234
-64 262 -43 20 -69 20 -107 1 -47 -25 -69 -70 -69 -142 0 -53 -3 -64 -21 -73
-29 -16 -49 -70 -49 -135 l0 -55 40 0 c36 0 40 3 40 25 0 13 -7 28 -15 32 -11
7 -14 18 -9 41 13 63 76 63 89 1 6 -24 3 -34 -9 -41 -9 -5 -16 -20 -16 -34 0
-23 3 -25 38 -22 l37 3 3 54 c4 63 -11 104 -44 126 -21 14 -24 23 -24 79 0 72
17 96 68 96 57 0 62 -20 62 -243 l0 -199 34 -34 c28 -28 41 -34 78 -34 52 1
83 16 109 56 17 27 19 49 19 271 l0 242 26 20 c15 12 32 21 39 21 7 0 24 -9
39 -21 l26 -20 0 -166 c0 -183 8 -216 59 -246 16 -9 48 -17 71 -17 34 0 48 6
76 34 32 32 34 38 34 100 0 52 5 73 21 95 26 36 22 68 -14 95 -26 19 -30 19
-55 5 -32 -18 -43 -77 -18 -99 11 -9 16 -30 16 -72 0 -49 -4 -63 -25 -83 -29
-30 -58 -32 -85 -5 -18 18 -20 33 -20 180 0 176 -8 211 -55 248 -31 25 -86 29
-124 9z m357 -230 c4 -21 -27 -35 -38 -17 -12 19 0 42 19 38 9 -2 17 -11 19
-21z"/>
<path d="M657 273 c-4 -3 -7 -15 -7 -25 0 -10 -9 -27 -21 -39 -17 -17 -29 -20
-59 -15 -37 6 -50 -3 -50 -34 0 -14 60 -30 91 -23 63 12 120 103 83 130 -20
15 -28 16 -37 6z"/>
</g>
</svg>
